<?xml version="1.0" encoding="utf-8"?>
<!-- Generated by IcoMoon.io -->
<!DOCTYPE svg PUBLIC "-//W3C//DTD SVG 1.1//EN" "http://www.w3.org/Graphics/SVG/1.1/DTD/svg11.dtd">
<svg version="1.1" xmlns="http://www.w3.org/2000/svg" xmlns:xlink="http://www.w3.org/1999/xlink" width="128" height="128" viewBox="0 0 128 128">
<path d="M64 0c-35.346 0-64 28.654-64 64s28.654 64 64 64 64-28.654 64-64-28.654-64-64-64zM64 120c-7.87 0-15.359-1.626-22.154-4.556l29.144-32.786c0.651-0.732 1.010-1.678 1.010-2.657v-12c0-2.209-1.791-4-4-4-14.124 0-29.026-14.683-29.172-14.828-0.75-0.75-1.767-1.172-2.828-1.172h-16c-2.209 0-4 1.791-4 4v24c0 1.515 0.856 2.9 2.211 3.578l13.789 6.894v23.486c-14.507-10.12-24-26.929-24-45.958 0-8.589 1.936-16.726 5.392-24h14.608c1.061 0 2.078-0.422 2.828-1.172l16-16c0.75-0.75 1.172-1.767 1.172-2.828v-9.677c5.070-1.509 10.44-2.324 16-2.324 8.801 0 17.126 2.032 24.535 5.65-0.518 0.438-1.022 0.896-1.506 1.38-4.533 4.533-7.029 10.56-7.029 16.971s2.496 12.438 7.029 16.971c4.554 4.554 10.652 7.033 16.954 7.032 0.396 0 0.793-0.010 1.19-0.029 1.727 6.475 4.844 23.332-1.050 46.542-0.055 0.218-0.087 0.436-0.105 0.653-10.165 10.385-24.338 16.832-40.018 16.832z"></path>
</svg>
