<?xml version="1.0" encoding="utf-8"?>
<!-- Generated by IcoMoon.io -->
<!DOCTYPE svg PUBLIC "-//W3C//DTD SVG 1.1//EN" "http://www.w3.org/Graphics/SVG/1.1/DTD/svg11.dtd">
<svg version="1.1" xmlns="http://www.w3.org/2000/svg" xmlns:xlink="http://www.w3.org/1999/xlink" width="128" height="128" viewBox="0 0 128 128">
<path fill="#000" d="M42.724 72.828l-8.836 22.68 22.288-9.228-13.452-13.452zM107.42 24.388l-2.828-2.828c-3.12-3.124-8.188-3.124-11.312 0l-5.656 5.656 14.14 14.144 5.656-5.656c3.128-3.124 3.128-8.192 0-11.316zM43.172 71.672l2.024-2.024 14.14 14.14 39.6-39.6-14.14-14.14 2.828-2.832-44.452 44.456zM92.016 104.016l-68.104 0.024 0.012-68.104 47.684-0.016 7.472-7.92h-59.22c-2.208 0-4 1.788-4 4v76c0 2.212 1.792 4 4 4h76c2.212 0 4-1.788 4-4v-56.232l-8.060 7.908 0.216 44.34z"></path>
</svg>
