<?xml version="1.0" encoding="utf-8"?>
<!-- Generated by IcoMoon.io -->
<!DOCTYPE svg PUBLIC "-//W3C//DTD SVG 1.1//EN" "http://www.w3.org/Graphics/SVG/1.1/DTD/svg11.dtd">
<svg version="1.1" xmlns="http://www.w3.org/2000/svg" xmlns:xlink="http://www.w3.org/1999/xlink" width="128" height="128" viewBox="0 0 128 128">
<path d="M55.029 79.471c-1.664 0-3.327-0.635-4.596-1.904-11.892-11.892-11.892-31.242 0-43.134l24-24c5.761-5.761 13.42-8.933 21.567-8.933s15.806 3.172 21.567 8.933c11.892 11.892 11.892 31.242 0 43.134l-10.971 10.971c-2.538 2.538-6.654 2.538-9.192 0s-2.538-6.654 0-9.193l10.971-10.971c6.823-6.823 6.823-17.925 0-24.749-3.305-3.305-7.7-5.125-12.374-5.125s-9.069 1.82-12.374 5.126l-24 24c-6.823 6.823-6.823 17.926 0 24.749 2.538 2.538 2.538 6.654 0 9.192-1.269 1.269-2.933 1.904-4.596 1.904z"></path>
<path d="M32 126.5c-8.147 0-15.806-3.172-21.567-8.933-11.892-11.892-11.892-31.242 0-43.134l10.971-10.971c2.538-2.538 6.654-2.538 9.193 0s2.538 6.654 0 9.192l-10.971 10.971c-6.823 6.823-6.823 17.926 0 24.749 3.305 3.305 7.7 5.125 12.374 5.125s9.069-1.82 12.375-5.126l24-24c6.823-6.823 6.823-17.926 0-24.749-2.538-2.538-2.538-6.654 0-9.193s6.654-2.538 9.192 0c11.892 11.892 11.892 31.242 0 43.133l-24 24c-5.761 5.761-13.42 8.933-21.567 8.933z"></path>
</svg>
