<?xml version="1.0" encoding="utf-8"?>
<!-- Generated by IcoMoon.io -->
<!DOCTYPE svg PUBLIC "-//W3C//DTD SVG 1.1//EN" "http://www.w3.org/Graphics/SVG/1.1/DTD/svg11.dtd">
<svg version="1.1" xmlns="http://www.w3.org/2000/svg" xmlns:xlink="http://www.w3.org/1999/xlink" width="128" height="128" viewBox="0 0 128 128">
<path d="M40 16h-16c-4.4 0-8 3.6-8 8v16c0 4.4 3.6 8 8 8h16c4.4 0 8-3.6 8-8v-16c0-4.4-3.6-8-8-8z"></path>
<path d="M88 48h16c4.4 0 8-3.6 8-8v-16c0-4.4-3.6-8-8-8h-16c-4.4 0-8 3.6-8 8v16c0 4.4 3.6 8 8 8zM88 24h16v16h-16v-16z"></path>
<path d="M40 80h-16c-4.4 0-8 3.6-8 8v16c0 4.4 3.6 8 8 8h16c4.4 0 8-3.6 8-8v-16c0-4.4-3.6-8-8-8zM40 104h-16v-16h16v16z"></path>
<path d="M104 80h-16c-4.4 0-8 3.6-8 8v16c0 4.4 3.6 8 8 8h16c4.4 0 8-3.6 8-8v-16c0-4.4-3.6-8-8-8z"></path>
<path d="M112 64h-8c-10.684 0-20.729-4.161-28.284-11.715s-11.716-17.6-11.716-28.285v-8c0-8.8-7.2-16-16-16h-32c-8.8 0-16 7.2-16 16v32c0 8.8 7.2 16 16 16h8c10.684 0 20.729 4.161 28.284 11.716s11.716 17.6 11.716 28.284v8c0 8.8 7.2 16 16 16h32c8.8 0 16-7.2 16-16v-32c0-8.8-7.2-16-16-16zM120 112c0 2.119-0.837 4.123-2.357 5.643s-3.524 2.357-5.643 2.357h-32c-2.119 0-4.123-0.837-5.643-2.357s-2.357-3.524-2.357-5.643v-8c0-26.51-21.49-48-48-48h-8c-2.119 0-4.123-0.837-5.643-2.357s-2.357-3.524-2.357-5.643v-32c0-2.119 0.837-4.123 2.357-5.643s3.524-2.357 5.643-2.357h32c2.119 0 4.123 0.837 5.643 2.357s2.357 3.524 2.357 5.643v8c0 26.51 21.49 48 48 48h8c2.119 0 4.123 0.837 5.643 2.357s2.357 3.524 2.357 5.643v32z"></path>
</svg>
