<?xml version="1.0" encoding="utf-8"?>
<!-- Generated by IcoMoon.io -->
<!DOCTYPE svg PUBLIC "-//W3C//DTD SVG 1.1//EN" "http://www.w3.org/Graphics/SVG/1.1/DTD/svg11.dtd">
<svg version="1.1" xmlns="http://www.w3.org/2000/svg" xmlns:xlink="http://www.w3.org/1999/xlink" width="128" height="128" viewBox="0 0 128 128">
<path fill="#000" d="M113.785 78.222c-3.931 0-7.111 3.184-7.111 7.111v17.778c0 1.963-1.594 3.555-3.555 3.555h-78.236c-1.965 0-3.555-1.592-3.555-3.555v-78.222c0-1.963 1.59-3.555 3.555-3.555h17.778c3.931 0 7.115-3.184 7.115-7.111s-3.184-7.111-7.115-7.111h-28.445c-3.931 0-7.115 3.184-7.115 7.111v99.555c0 3.927 3.184 7.111 7.115 7.111h99.569c3.931 0 7.111-3.184 7.111-7.111v-28.445c0-3.927-3.18-7.111-7.111-7.111z"></path>
<path fill="#000" d="M93.647 24.196l10.163 10.165-42.298 43.861h-11.736v-11.734l43.871-42.291zM93.737 7.111c-1.82 0-3.632 0.693-5.021 2.078l-53.166 51.255v32h32.007l51.264-53.156c2.771-2.771 2.771-7.262 0-10.033l-20.070-20.066c-1.382-1.386-3.201-2.078-5.014-2.078v0z"></path>
</svg>
