<?xml version="1.0" encoding="utf-8"?>
<!-- Generated by IcoMoon.io -->
<!DOCTYPE svg PUBLIC "-//W3C//DTD SVG 1.1//EN" "http://www.w3.org/Graphics/SVG/1.1/DTD/svg11.dtd">
<svg version="1.1" xmlns="http://www.w3.org/2000/svg" xmlns:xlink="http://www.w3.org/1999/xlink" width="128" height="128" viewBox="0 0 128 128">
<path fill="#000" d="M22.328 80.216l59.544-59.544 25.476 25.476-59.544 59.544-25.476-25.476zM84.612 35.032l-2.792-2.788-47.924 47.92 2.792 2.792 47.924-47.924zM90.196 40.616l-2.792-2.792-47.924 47.928 2.788 2.788 47.928-47.924zM95.78 46.2l-2.792-2.792-47.924 47.924 2.792 2.792 47.924-47.924zM93.276 9.424c3.124-3.132 8.18-3.152 11.28-0.052l14.048 14.048c3.1 3.1 3.080 8.152-0.048 11.28l-8.68 8.68-25.28-25.28 8.68-8.676zM20.368 83.532l24.12 24.12-21.136 7.508-10.492-10.492 7.508-21.136zM19.348 116.468l-12.264 4.468 4.468-12.264 7.796 7.796z"></path>
</svg>
