<?xml version="1.0" encoding="utf-8"?>
<!-- Generated by IcoMoon.io -->
<!DOCTYPE svg PUBLIC "-//W3C//DTD SVG 1.1//EN" "http://www.w3.org/Graphics/SVG/1.1/DTD/svg11.dtd">
<svg version="1.1" xmlns="http://www.w3.org/2000/svg" xmlns:xlink="http://www.w3.org/1999/xlink" width="128" height="128" viewBox="0 0 128 128">
<path d="M122 96h-2v-26c0-7.719-6.28-14-14-14h-34v-16h2c3.3 0 6-2.7 6-6v-20c0-3.3-2.7-6-6-6h-20c-3.3 0-6 2.7-6 6v20c0 3.3 2.7 6 6 6h2v16h-34c-7.72 0-14 6.281-14 14v26h-2c-3.3 0-6 2.7-6 6v20c0 3.3 2.7 6 6 6h20c3.3 0 6-2.7 6-6v-20c0-3.3-2.7-6-6-6h-2v-24h32v24h-2c-3.3 0-6 2.7-6 6v20c0 3.3 2.7 6 6 6h20c3.3 0 6-2.7 6-6v-20c0-3.3-2.7-6-6-6h-2v-24h32v24h-2c-3.3 0-6 2.7-6 6v20c0 3.3 2.7 6 6 6h20c3.3 0 6-2.7 6-6v-20c0-3.3-2.7-6-6-6zM24 120h-16v-16h16v16zM72 120h-16v-16h16v16zM56 32v-16h16v16h-16zM120 120h-16v-16h16v16z"></path>
</svg>
